<svg width="12" height="12" viewBox="0 0 12 12" fill="none" xmlns="http://www.w3.org/2000/svg">
<path fill-rule="evenodd" clip-rule="evenodd" d="M9.10067 3.11257L6.43899 0.83138C6.31472 0.722442 6.15784 0.666708 6.00013 0.666626C5.89223 0.66657 5.78393 0.692569 5.68544 0.745406C5.64154 0.768892 5.59984 0.797575 5.56128 0.83138L2.89959 3.11257C2.62003 3.35217 2.58763 3.77303 2.82723 4.0526C3.06683 4.33216 3.4877 4.36456 3.76726 4.12496L5.33342 2.78268V7.94578C5.33342 8.31396 5.6319 8.61244 6.00009 8.61244C6.36828 8.61244 6.66676 8.31396 6.66676 7.94578L6.66676 2.78261L8.23301 4.12496C8.51257 4.36456 8.93344 4.33216 9.17304 4.0526C9.41264 3.77303 9.38024 3.35217 9.10067 3.11257ZM2.00008 7.33329C2.00008 6.9651 2.29856 6.66663 2.66675 6.66663H3.66675C4.03494 6.66663 4.33341 6.36815 4.33341 5.99996C4.33341 5.63177 4.03494 5.33329 3.66675 5.33329H2.66675C1.56218 5.33329 0.666748 6.22872 0.666748 7.33329V9.33329C0.666748 10.4379 1.56218 11.3333 2.66675 11.3333H9.33342C10.438 11.3333 11.3334 10.4379 11.3334 9.33329V7.33329C11.3334 6.22872 10.438 5.33329 9.33342 5.33329H8.33342C7.96522 5.33329 7.66675 5.63177 7.66675 5.99996C7.66675 6.36815 7.96522 6.66663 8.33342 6.66663H9.33342C9.7016 6.66663 10.0001 6.9651 10.0001 7.33329V9.33329C10.0001 9.70148 9.7016 9.99996 9.33342 9.99996H2.66675C2.29856 9.99996 2.00008 9.70148 2.00008 9.33329V7.33329Z" fill="#0F3659"/>
</svg>
