<svg width="66" height="37" viewBox="0 0 66 37" fill="none" xmlns="http://www.w3.org/2000/svg">
<g clip-path="url(#clip0_206_1994)">
<path fill-rule="evenodd" clip-rule="evenodd" d="M36.033 33.7556C35.8912 34.6734 35.3472 35.4833 34.539 35.9552C33.0772 36.8068 31.2003 36.2997 30.356 34.8255C29.5117 33.3512 30.0144 31.4584 31.4775 30.6069C32.2857 30.1362 33.2538 30.066 34.1136 30.4015L52.8011 21.1582L53.3155 22.0565L36.0343 33.7569L36.033 33.7556Z" fill="url(#paint0_linear_206_1994)"/>
<path fill-rule="evenodd" clip-rule="evenodd" d="M7.69828 33.2758C7.69828 28.6269 8.93062 24.2692 11.0846 20.5159L4.41633 16.6327C1.60746 21.5287 0 27.2125 0 33.2758H7.69828Z" fill="#5C5C5C"/>
<path fill-rule="evenodd" clip-rule="evenodd" d="M11.6994 19.5006C13.8792 16.0789 16.8492 13.2162 20.3477 11.1739L16.4973 4.44874C11.8296 7.17232 7.88509 11.0152 5.02466 15.6148L11.6981 19.5006H11.6994Z" fill="#5C5C5C"/>
<path fill-rule="evenodd" clip-rule="evenodd" d="M32.4108 0C27.4337 0.0884028 22.7261 1.28704 18.5199 3.36191C18.186 3.52701 17.856 3.69732 17.5286 3.87282L21.3816 10.6044C21.553 10.5147 21.7245 10.4276 21.8985 10.3418C25.0838 8.77008 28.6467 7.85485 32.4108 7.76775V0Z" fill="#5C5C5C"/>
<path fill-rule="evenodd" clip-rule="evenodd" d="M48.4726 3.87152C48.1452 3.69602 47.8139 3.52571 47.4813 3.36061C43.2738 1.28704 38.5662 0.0884028 33.5891 0V7.76644C37.3545 7.85355 40.9161 8.76878 44.1014 10.3405C44.2754 10.4263 44.4469 10.5134 44.6183 10.6031L48.4713 3.87152H48.4726Z" fill="#5C5C5C"/>
<path fill-rule="evenodd" clip-rule="evenodd" d="M60.9752 15.6148C58.1148 11.0165 54.1702 7.17232 49.5025 4.44874L45.6521 11.1739C49.1506 13.2162 52.1193 16.0776 54.3004 19.5006L60.9739 15.6148H60.9752Z" fill="#5C5C5C"/>
<path fill-rule="evenodd" clip-rule="evenodd" d="M65.9999 33.2758C65.9999 27.2125 64.3925 21.5287 61.5836 16.6327L54.9153 20.5159C57.0693 24.2692 58.3016 28.6282 58.3016 33.2758H66.0012H65.9999Z" fill="#5C5C5C"/>
</g>
<defs>
<linearGradient id="paint0_linear_206_1994" x1="41.6309" y1="21.1582" x2="41.6309" y2="36.3685" gradientUnits="userSpaceOnUse">
<stop stop-color="#4BAE4F"/>
<stop offset="1" stop-color="#038609"/>
</linearGradient>
<clipPath id="clip0_206_1994">
<rect width="66" height="36.3673" fill="white"/>
</clipPath>
</defs>
</svg>
